<?xml version="1.0" encoding="UTF-8"?>
<svg width="1200pt" height="1200pt" version="1.1" viewBox="0 0 1200 1200" xmlns="http://www.w3.org/2000/svg">
 <g>
  <path d="m276 238.67c-26.668 0-46.668-21.332-46.668-46.668v-105.33c0-26.668 21.332-46.668 46.668-46.668 26.668 0 46.668 21.332 46.668 46.668v104c0 26.664-20 48-46.668 48z"/>
  <path d="m794.67 238.67c-26.668 0-46.668-21.332-46.668-46.668v-105.33c0-26.668 21.332-46.668 46.668-46.668 26.668 0 46.668 21.332 46.668 46.668v104c-0.003907 26.664-20.004 48-46.668 48z"/>
  <path d="m961.33 164c33.332 0 61.332 26.668 61.332 61.332v677.33c0 33.332-26.668 61.332-61.332 61.332l-850.66 0.003906c-33.332 0-61.332-26.668-61.332-61.332l-0.003907-678.67c0-33.332 26.668-61.332 61.332-61.332h73.332v32c0 50.668 41.332 92 92 92 50.668 0 92-41.332 92-92v-32h337.33v32c0 50.668 41.332 92 92 92s92-41.332 92-92v-32h72.004m0-24h-98.668v57.332c0 37.332-30.668 66.668-66.668 66.668-37.332 0-66.668-30.668-66.668-66.668v-57.332h-386.67v57.332c0 37.332-30.668 66.668-66.668 66.668-37.332 0-66.668-30.668-66.668-66.668v-57.332h-98.656c-46.668 0-85.332 38.668-85.332 85.332v677.33c0 46.668 38.668 85.332 85.332 85.332h850.67c46.668 0 85.332-38.668 85.332-85.332v-677.33c0-46.668-38.668-85.332-85.336-85.332z"/>
  <path d="m1025.3 1062.7h-850.66c-22.668 0-45.332-8-62.668-22.668-5.332-4-5.332-12-1.332-17.332s12-5.332 17.332-1.332c13.332 10.668 29.332 17.332 46.668 17.332h850.67c40 0 73.332-33.332 73.332-73.332v-677.34c0-18.668-6.668-36-18.668-49.332-4-5.332-4-13.332 1.332-17.332s13.332-4 17.332 1.332c16 18.668 25.332 41.332 25.332 65.332v677.33c-1.3281 54.668-45.328 97.336-98.664 97.336z"/>
  <path d="m1093.3 1130.7h-850.66c-22.668 0-45.332-8-62.668-22.668-5.332-4-5.332-12-1.332-17.332s12-5.332 17.332-1.332c13.332 10.668 29.332 17.332 46.668 17.332h850.66c40 0 73.332-33.332 73.332-73.332l0.003907-677.34c0-18.668-6.668-36-18.668-49.332-4-5.332-4-13.332 1.332-17.332s13.332-4 17.332 1.332c16 18.668 25.332 41.332 25.332 65.332v677.33c-1.3281 53.336-45.328 97.336-98.664 97.336z"/>
  <path d="m86.668 313.33h894.67v25.332h-894.67z"/>
  <path d="m572 498.67h-70.668c-8 0-16-6.668-16-16v-69.336c0-8 6.668-16 16-16h70.668c8 0 16 6.668 16 16v70.668c0 8-6.668 14.668-16 14.668z"/>
  <path d="m705.33 498.67h-70.668c-8 0-16-6.668-16-16l0.003907-69.336c0-8 6.668-16 16-16h70.668c8 0 16 6.668 16 16v70.668c-0.003907 8-6.668 14.668-16.004 14.668z"/>
  <path d="m838.67 498.67h-70.668c-8 0-16-6.668-16-16v-69.336c0-8 6.668-16 16-16h70.668c8 0 16 6.668 16 16v70.668c0 8-8 14.668-16 14.668z"/>
  <path d="m972 498.67h-70.668c-8 0-16-6.668-16-16v-69.336c0-8 6.668-16 16-16h70.668c8 0 16 6.668 16 16v70.668c0 8-8 14.668-16 14.668z"/>
  <path d="m173.33 637.33h-70.664c-8 0-16-6.668-16-16v-70.668c0-8 6.668-16 16-16l70.664 0.003907c8 0 16 6.668 16 16v70.668c0 7.9961-6.6641 15.996-16 15.996z"/>
  <path d="m306.67 637.33h-70.668c-8 0-16-6.668-16-16v-70.668c0-8 6.668-16 16-16l70.668 0.003907c8 0 16 6.668 16 16v70.668c0 7.9961-8 15.996-16 15.996z"/>
  <path d="m440 637.33h-70.668c-8 0-16-6.668-16-16v-70.668c0-8 6.668-16 16-16l70.668 0.003907c8 0 16 6.668 16 16v70.668c-1.332 7.9961-8 15.996-16 15.996z"/>
  <path d="m572 637.33h-70.668c-8 0-16-6.668-16-16v-70.668c0-8 6.668-16 16-16h70.668c8 0 16 6.668 16 16v70.668c0 8-6.668 16-16 16z"/>
  <path d="m705.33 637.33h-70.668c-8 0-16-6.668-16-16v-70.668c0-8 6.668-16 16-16h70.668c8 0 16 6.668 16 16v70.668c0 8-6.6641 16-16 16z"/>
  <path d="m838.67 637.33h-70.668c-8 0-16-6.668-16-16v-70.668c0-8 6.668-16 16-16h70.668c8 0 16 6.668 16 16v70.668c0 8-8 16-16 16z"/>
  <path d="m972 637.33h-70.668c-8 0-16-6.668-16-16v-70.668c0-8 6.668-16 16-16h70.668c8 0 16 6.668 16 16v70.668c0 8-8 16-16 16z"/>
  <path d="m173.33 774.67h-70.664c-8 0-16-6.668-16-16v-70.668c0-8 6.668-16 16-16h70.664c8 0 16 6.668 16 16v72c0 8-6.6641 14.668-16 14.668z"/>
  <path d="m306.67 774.67h-70.668c-8 0-16-6.668-16-16v-70.668c0-8 6.668-16 16-16h70.668c8 0 16 6.668 16 16v72c0 8-8 14.668-16 14.668z"/>
  <path d="m440 774.67h-70.668c-8 0-16-6.668-16-16v-70.668c0-8 6.668-16 16-16h70.668c8 0 16 6.668 16 16v72c-1.332 8-8 14.668-16 14.668z"/>
  <path d="m572 774.67h-70.668c-8 0-16-6.668-16-16v-70.668c0-8 6.668-16 16-16h70.668c8 0 16 6.668 16 16v72c0 8-6.668 14.668-16 14.668z"/>
  <path d="m705.33 774.67h-70.668c-8 0-16-6.668-16-16v-70.668c0-8 6.668-16 16-16h70.668c8 0 16 6.668 16 16v72c0 8-6.6641 14.668-16 14.668z"/>
  <path d="m838.67 774.67h-70.668c-8 0-16-6.668-16-16v-70.668c0-8 6.668-16 16-16h70.668c8 0 16 6.668 16 16v72c0 8-8 14.668-16 14.668z"/>
  <path d="m972 774.67h-70.668c-8 0-16-6.668-16-16v-70.668c0-8 6.668-16 16-16h70.668c8 0 16 6.668 16 16v72c0 8-8 14.668-16 14.668z"/>
  <path d="m173.33 913.33h-70.664c-8 0-16-6.668-16-16v-70.668c0-8 6.668-16 16-16l70.664 0.003907c8 0 16 6.668 16 16v70.668c0 9.332-6.6641 15.996-16 15.996z"/>
  <path d="m306.67 913.33h-70.668c-8 0-16-6.668-16-16v-70.668c0-8 6.668-16 16-16l70.668 0.003907c8 0 16 6.668 16 16v70.668c0 9.332-8 15.996-16 15.996z"/>
  <path d="m440 913.33h-70.668c-8 0-16-6.668-16-16v-70.668c0-8 6.668-16 16-16l70.668 0.003907c8 0 16 6.668 16 16v70.668c-1.332 9.332-8 15.996-16 15.996z"/>
  <path d="m572 913.33h-70.668c-8 0-16-6.668-16-16v-70.668c0-8 6.668-16 16-16h70.668c8 0 16 6.668 16 16v70.668c0 9.3359-6.668 16-16 16z"/>
  <path d="m705.33 913.33h-70.668c-8 0-16-6.668-16-16v-70.668c0-8 6.668-16 16-16h70.668c8 0 16 6.668 16 16v70.668c0 9.3359-6.6641 16-16 16z"/>
 </g>
</svg>
